<mxfile host="app.diagrams.net" agent="Mozilla/5.0 (X11; Linux x86_64) AppleWebKit/537.36 (KHTML, like Gecko) Chrome/130.0.0.0 Safari/537.36" version="24.8.4">
  <diagram name="Activity Diagram" id="0">
    <mxGraphModel dx="2049" dy="1126" grid="1" gridSize="10" guides="1" tooltips="1" connect="1" arrows="1" fold="1" page="1" pageScale="1" pageWidth="827" pageHeight="1169" math="0" shadow="0">
      <root>
        <mxCell id="0" />
        <mxCell id="1" parent="0" />
        <mxCell id="5jS3hL7-IDB9Dz8r2b3B-70" value="" style="group;fontStyle=0" vertex="1" connectable="0" parent="1">
          <mxGeometry x="10" y="10" width="790" height="1150" as="geometry" />
        </mxCell>
        <mxCell id="2" value="Activity Diagram" style="text;html=1;strokeColor=none;fillColor=none;fontSize=16;fontStyle=1;swimlaneLine=0;" parent="5jS3hL7-IDB9Dz8r2b3B-70" vertex="1">
          <mxGeometry x="125.09135200974421" width="106.80876979293544" height="26" as="geometry" />
        </mxCell>
        <mxCell id="3" value="ADMIN" style="swimlane;fontSize=14;fillColor=#ffffff;swimlaneLine=0;fontStyle=0" parent="5jS3hL7-IDB9Dz8r2b3B-70" vertex="1">
          <mxGeometry x="19.244823386114494" y="40" width="259.80511571254567" height="1100" as="geometry" />
        </mxCell>
        <mxCell id="6" value="Registration/&#xa;Login" style="rounded=1;whiteSpace=wrap;html=1;swimlaneLine=0;fontStyle=0" parent="3" vertex="1">
          <mxGeometry x="57.734470158343484" y="90" width="87.56394640682095" height="46" as="geometry" />
        </mxCell>
        <mxCell id="7" value="User Role" style="rhombus;whiteSpace=wrap;html=1;swimlaneLine=0;fontStyle=0" parent="3" vertex="1">
          <mxGeometry x="57.734470158343484" y="180" width="87.56394640682095" height="56" as="geometry" />
        </mxCell>
        <mxCell id="5jS3hL7-IDB9Dz8r2b3B-69" style="edgeStyle=orthogonalEdgeStyle;rounded=0;orthogonalLoop=1;jettySize=auto;html=1;exitX=0.5;exitY=1;exitDx=0;exitDy=0;entryX=0.5;entryY=0;entryDx=0;entryDy=0;fontStyle=0" edge="1" parent="3" source="17" target="6">
          <mxGeometry relative="1" as="geometry" />
        </mxCell>
        <mxCell id="17" style="ellipse;whiteSpace=wrap;html=1;fillColor=#000000;swimlaneLine=0;fontStyle=0" parent="3" vertex="1">
          <mxGeometry x="86.60170523751522" y="40" width="28.867235079171742" height="26" as="geometry" />
        </mxCell>
        <mxCell id="20" style="endArrow=block;html=1;swimlaneLine=0;fontStyle=0" parent="3" source="6" target="7" edge="1">
          <mxGeometry relative="1" as="geometry" />
        </mxCell>
        <mxCell id="4" value="LABOUR/ JOB SEEKER" style="swimlane;fontSize=14;fillColor=#ffffff;swimlaneLine=0;fontStyle=0" parent="5jS3hL7-IDB9Dz8r2b3B-70" vertex="1">
          <mxGeometry x="279.04993909866016" y="40" width="240.56029232643118" height="1100" as="geometry" />
        </mxCell>
        <mxCell id="10" value="View Job Details" style="rounded=1;whiteSpace=wrap;html=1;swimlaneLine=0;fontStyle=0" parent="4" vertex="1">
          <mxGeometry x="57.734470158343484" y="350" width="87.56394640682095" height="46" as="geometry" />
        </mxCell>
        <mxCell id="5jS3hL7-IDB9Dz8r2b3B-61" style="edgeStyle=orthogonalEdgeStyle;rounded=0;orthogonalLoop=1;jettySize=auto;html=1;exitX=0.5;exitY=1;exitDx=0;exitDy=0;entryX=0.5;entryY=0;entryDx=0;entryDy=0;fontStyle=0" edge="1" parent="4" source="11" target="uONx_OTgXNivy8K3GdRn-32">
          <mxGeometry relative="1" as="geometry" />
        </mxCell>
        <mxCell id="11" value="Apply for Job" style="rounded=1;whiteSpace=wrap;html=1;swimlaneLine=0;fontStyle=0" parent="4" vertex="1">
          <mxGeometry x="57.734470158343484" y="550" width="87.56394640682095" height="46" as="geometry" />
        </mxCell>
        <mxCell id="uONx_OTgXNivy8K3GdRn-29" value="Job Searching" style="rounded=1;whiteSpace=wrap;html=1;swimlaneLine=0;fontStyle=0" parent="4" vertex="1">
          <mxGeometry x="57.734470158343484" y="140" width="87.56394640682095" height="46" as="geometry" />
        </mxCell>
        <mxCell id="uONx_OTgXNivy8K3GdRn-32" value="Communication &#xa;&amp;amp; Messaging" style="rounded=1;whiteSpace=wrap;html=1;swimlaneLine=0;fontStyle=0" parent="4" vertex="1">
          <mxGeometry x="57.734470158343484" y="640" width="87.56394640682095" height="46" as="geometry" />
        </mxCell>
        <mxCell id="5jS3hL7-IDB9Dz8r2b3B-71" style="edgeStyle=orthogonalEdgeStyle;rounded=0;orthogonalLoop=1;jettySize=auto;html=1;exitX=0.5;exitY=1;exitDx=0;exitDy=0;entryX=0.5;entryY=0;entryDx=0;entryDy=0;" edge="1" parent="4" source="5jS3hL7-IDB9Dz8r2b3B-29" target="uONx_OTgXNivy8K3GdRn-29">
          <mxGeometry relative="1" as="geometry" />
        </mxCell>
        <mxCell id="5jS3hL7-IDB9Dz8r2b3B-29" value="&lt;font face=&quot;Times New Roman&quot;&gt;PROFILE SETUP&lt;/font&gt;" style="rhombus;whiteSpace=wrap;html=1;hachureGap=4;fontFamily=Architects Daughter;fontSource=https%3A%2F%2Ffonts.googleapis.com%2Fcss%3Ffamily%3DArchitects%2BDaughter;swimlaneLine=0;fontStyle=0" vertex="1" parent="4">
          <mxGeometry x="67.35688185140073" y="30" width="73.13032886723508" height="75" as="geometry" />
        </mxCell>
        <mxCell id="5" value="CUSTOMER/ COMPANY" style="swimlane;fontSize=14;fillColor=#ffffff;swimlaneLine=0;fontStyle=0" parent="5jS3hL7-IDB9Dz8r2b3B-70" vertex="1">
          <mxGeometry x="519.6102314250913" y="40" width="270.38976857490866" height="1100" as="geometry" />
        </mxCell>
        <mxCell id="12" value="Job Listing" style="rounded=1;whiteSpace=wrap;html=1;swimlaneLine=0;fontStyle=0" parent="5" vertex="1">
          <mxGeometry x="76.97929354445799" y="140" width="87.56394640682096" height="46" as="geometry" />
        </mxCell>
        <mxCell id="13" value="Candidate Profile" style="rounded=1;whiteSpace=wrap;html=1;swimlaneLine=0;fontStyle=0" parent="5" vertex="1">
          <mxGeometry x="76.97929354445799" y="230" width="87.56394640682096" height="46" as="geometry" />
        </mxCell>
        <mxCell id="5jS3hL7-IDB9Dz8r2b3B-66" style="edgeStyle=orthogonalEdgeStyle;rounded=0;orthogonalLoop=1;jettySize=auto;html=1;exitX=0.5;exitY=1;exitDx=0;exitDy=0;fontStyle=0" edge="1" parent="5" source="14" target="15">
          <mxGeometry relative="1" as="geometry" />
        </mxCell>
        <mxCell id="14" value="Communication &#xa;&amp;amp; Messaging" style="rounded=1;whiteSpace=wrap;html=1;swimlaneLine=0;fontStyle=0" parent="5" vertex="1">
          <mxGeometry x="76.97929354445799" y="460" width="87.56394640682096" height="46" as="geometry" />
        </mxCell>
        <mxCell id="5jS3hL7-IDB9Dz8r2b3B-67" style="edgeStyle=orthogonalEdgeStyle;rounded=0;orthogonalLoop=1;jettySize=auto;html=1;exitX=0.5;exitY=1;exitDx=0;exitDy=0;fontStyle=0" edge="1" parent="5" source="15" target="16">
          <mxGeometry relative="1" as="geometry" />
        </mxCell>
        <mxCell id="15" value="Feedback &#xa;&amp;amp; Reviews" style="rounded=1;whiteSpace=wrap;html=1;swimlaneLine=0;fontStyle=0" parent="5" vertex="1">
          <mxGeometry x="76.97929354445799" y="550" width="87.56394640682096" height="46" as="geometry" />
        </mxCell>
        <mxCell id="16" value="Support &#xa;&amp;amp; Help Desk" style="rounded=1;whiteSpace=wrap;html=1;swimlaneLine=0;fontStyle=0" parent="5" vertex="1">
          <mxGeometry x="76.97929354445799" y="640" width="87.56394640682096" height="46" as="geometry" />
        </mxCell>
        <mxCell id="3F6_1nNWC0JJCGMM5PzK-36" value="" style="ellipse;html=1;shape=endState;fillColor=#000000;strokeColor=#ff0000;swimlaneLine=0;fontStyle=0" parent="5" vertex="1">
          <mxGeometry x="101.0353227771011" y="750" width="41.37637028014617" height="30" as="geometry" />
        </mxCell>
        <mxCell id="5jS3hL7-IDB9Dz8r2b3B-68" style="edgeStyle=orthogonalEdgeStyle;rounded=0;orthogonalLoop=1;jettySize=auto;html=1;exitX=0.5;exitY=1;exitDx=0;exitDy=0;entryX=0.479;entryY=0.222;entryDx=0;entryDy=0;entryPerimeter=0;fontStyle=0" edge="1" parent="5" source="16" target="3F6_1nNWC0JJCGMM5PzK-36">
          <mxGeometry relative="1" as="geometry" />
        </mxCell>
        <mxCell id="28" style="endArrow=block;html=1;exitX=1;exitY=0.5;exitDx=0;exitDy=0;entryX=0;entryY=0.5;entryDx=0;entryDy=0;swimlaneLine=0;fontStyle=0" parent="5jS3hL7-IDB9Dz8r2b3B-70" source="7" target="5jS3hL7-IDB9Dz8r2b3B-29" edge="1">
          <mxGeometry relative="1" as="geometry">
            <mxPoint x="269.4275274056029" y="240" as="sourcePoint" />
            <Array as="points">
              <mxPoint x="307.9171741778319" y="250" />
              <mxPoint x="307.9171741778319" y="110" />
              <mxPoint x="336.78440925700363" y="110" />
            </Array>
            <mxPoint x="375.2740560292326" y="127.77777777777783" as="targetPoint" />
          </mxGeometry>
        </mxCell>
        <mxCell id="5jS3hL7-IDB9Dz8r2b3B-63" style="edgeStyle=orthogonalEdgeStyle;rounded=0;orthogonalLoop=1;jettySize=auto;html=1;exitX=0.5;exitY=1;exitDx=0;exitDy=0;fontStyle=0" edge="1" parent="5jS3hL7-IDB9Dz8r2b3B-70" source="uONx_OTgXNivy8K3GdRn-34" target="uONx_OTgXNivy8K3GdRn-36">
          <mxGeometry relative="1" as="geometry" />
        </mxCell>
        <mxCell id="uONx_OTgXNivy8K3GdRn-34" value="Feedback &#xa;&amp;amp; Reviews" style="rounded=1;whiteSpace=wrap;html=1;swimlaneLine=0;fontStyle=0" parent="5jS3hL7-IDB9Dz8r2b3B-70" vertex="1">
          <mxGeometry x="336.78440925700363" y="770" width="87.56394640682095" height="46" as="geometry" />
        </mxCell>
        <mxCell id="5jS3hL7-IDB9Dz8r2b3B-64" style="edgeStyle=orthogonalEdgeStyle;rounded=0;orthogonalLoop=1;jettySize=auto;html=1;exitX=0.5;exitY=1;exitDx=0;exitDy=0;fontStyle=0" edge="1" parent="5jS3hL7-IDB9Dz8r2b3B-70" source="uONx_OTgXNivy8K3GdRn-36" target="uONx_OTgXNivy8K3GdRn-37">
          <mxGeometry relative="1" as="geometry" />
        </mxCell>
        <mxCell id="uONx_OTgXNivy8K3GdRn-36" value="Support &#xa;&amp;amp; Help Desk" style="rounded=1;whiteSpace=wrap;html=1;swimlaneLine=0;fontStyle=0" parent="5jS3hL7-IDB9Dz8r2b3B-70" vertex="1">
          <mxGeometry x="336.78440925700363" y="870" width="87.56394640682095" height="46" as="geometry" />
        </mxCell>
        <mxCell id="uONx_OTgXNivy8K3GdRn-37" value="" style="ellipse;html=1;shape=endState;fillColor=#000000;strokeColor=#ff0000;swimlaneLine=0;fontStyle=0" parent="5jS3hL7-IDB9Dz8r2b3B-70" vertex="1">
          <mxGeometry x="360.8404384896468" y="980" width="37.52740560292326" height="26" as="geometry" />
        </mxCell>
        <mxCell id="uONx_OTgXNivy8K3GdRn-42" style="endArrow=block;html=1;swimlaneLine=0;fontStyle=0" parent="5jS3hL7-IDB9Dz8r2b3B-70" edge="1">
          <mxGeometry relative="1" as="geometry">
            <mxPoint x="644.7015834348356" y="150" as="sourcePoint" />
            <mxPoint x="644.7015834348356" y="180" as="targetPoint" />
          </mxGeometry>
        </mxCell>
        <mxCell id="5jS3hL7-IDB9Dz8r2b3B-30" value="&lt;font face=&quot;Times New Roman&quot;&gt;YES&lt;/font&gt;" style="text;html=1;align=center;verticalAlign=middle;resizable=0;points=[];autosize=1;strokeColor=none;fillColor=none;fontFamily=Architects Daughter;fontSource=https%3A%2F%2Ffonts.googleapis.com%2Fcss%3Ffamily%3DArchitects%2BDaughter;swimlaneLine=0;fontStyle=0" vertex="1" parent="5jS3hL7-IDB9Dz8r2b3B-70">
          <mxGeometry x="380.08526187576126" y="148" width="50" height="30" as="geometry" />
        </mxCell>
        <mxCell id="5jS3hL7-IDB9Dz8r2b3B-31" value="&lt;font face=&quot;Times New Roman&quot;&gt;PROFILE SETUP&lt;/font&gt;" style="rhombus;whiteSpace=wrap;html=1;hachureGap=4;fontFamily=Architects Daughter;fontSource=https%3A%2F%2Ffonts.googleapis.com%2Fcss%3Ffamily%3DArchitects%2BDaughter;swimlaneLine=0;fontStyle=0" vertex="1" parent="5jS3hL7-IDB9Dz8r2b3B-70">
          <mxGeometry x="606.2119366626065" y="70" width="68.31912302070646" height="76" as="geometry" />
        </mxCell>
        <mxCell id="5jS3hL7-IDB9Dz8r2b3B-32" value="&lt;font face=&quot;Times New Roman&quot;&gt;YES&lt;/font&gt;" style="text;html=1;align=center;verticalAlign=middle;resizable=0;points=[];autosize=1;strokeColor=none;fillColor=none;fontFamily=Architects Daughter;fontSource=https%3A%2F%2Ffonts.googleapis.com%2Fcss%3Ffamily%3DArchitects%2BDaughter;swimlaneLine=0;fontStyle=0" vertex="1" parent="5jS3hL7-IDB9Dz8r2b3B-70">
          <mxGeometry x="601.400730816078" y="148" width="50" height="30" as="geometry" />
        </mxCell>
        <mxCell id="5jS3hL7-IDB9Dz8r2b3B-37" style="edgeStyle=orthogonalEdgeStyle;rounded=0;hachureGap=4;orthogonalLoop=1;jettySize=auto;html=1;exitX=1;exitY=0.5;exitDx=0;exitDy=0;entryX=1;entryY=0.5;entryDx=0;entryDy=0;fontFamily=Architects Daughter;fontSource=https%3A%2F%2Ffonts.googleapis.com%2Fcss%3Ffamily%3DArchitects%2BDaughter;fontStyle=0" edge="1" parent="5jS3hL7-IDB9Dz8r2b3B-70" source="5jS3hL7-IDB9Dz8r2b3B-33" target="uONx_OTgXNivy8K3GdRn-29">
          <mxGeometry relative="1" as="geometry" />
        </mxCell>
        <mxCell id="5jS3hL7-IDB9Dz8r2b3B-60" style="edgeStyle=orthogonalEdgeStyle;rounded=0;orthogonalLoop=1;jettySize=auto;html=1;exitX=0.5;exitY=1;exitDx=0;exitDy=0;entryX=0.5;entryY=0;entryDx=0;entryDy=0;fontStyle=0" edge="1" parent="5jS3hL7-IDB9Dz8r2b3B-70" source="5jS3hL7-IDB9Dz8r2b3B-33" target="10">
          <mxGeometry relative="1" as="geometry" />
        </mxCell>
        <mxCell id="5jS3hL7-IDB9Dz8r2b3B-33" value="&lt;font face=&quot;Times New Roman&quot;&gt;JOB FOUND&lt;/font&gt;" style="rhombus;whiteSpace=wrap;html=1;hachureGap=4;fontFamily=Architects Daughter;fontSource=https%3A%2F%2Ffonts.googleapis.com%2Fcss%3Ffamily%3DArchitects%2BDaughter;swimlaneLine=0;fontStyle=0" vertex="1" parent="5jS3hL7-IDB9Dz8r2b3B-70">
          <mxGeometry x="336.78440925700363" y="270" width="86.60170523751522" height="77" as="geometry" />
        </mxCell>
        <mxCell id="5jS3hL7-IDB9Dz8r2b3B-34" style="edgeStyle=orthogonalEdgeStyle;rounded=0;hachureGap=4;orthogonalLoop=1;jettySize=auto;html=1;exitX=0.5;exitY=1;exitDx=0;exitDy=0;entryX=0.5;entryY=0;entryDx=0;entryDy=0;fontFamily=Architects Daughter;fontSource=https%3A%2F%2Ffonts.googleapis.com%2Fcss%3Ffamily%3DArchitects%2BDaughter;swimlaneLine=0;fontStyle=0" edge="1" parent="5jS3hL7-IDB9Dz8r2b3B-70" source="uONx_OTgXNivy8K3GdRn-29" target="5jS3hL7-IDB9Dz8r2b3B-33">
          <mxGeometry relative="1" as="geometry" />
        </mxCell>
        <mxCell id="5jS3hL7-IDB9Dz8r2b3B-36" value="&lt;font face=&quot;Times New Roman&quot;&gt;YES&lt;/font&gt;" style="text;html=1;align=center;verticalAlign=middle;resizable=0;points=[];autosize=1;strokeColor=none;fillColor=none;fontFamily=Architects Daughter;fontSource=https%3A%2F%2Ffonts.googleapis.com%2Fcss%3Ffamily%3DArchitects%2BDaughter;swimlaneLine=0;fontStyle=0" vertex="1" parent="5jS3hL7-IDB9Dz8r2b3B-70">
          <mxGeometry x="322.3507917174178" y="328" width="50" height="30" as="geometry" />
        </mxCell>
        <mxCell id="5jS3hL7-IDB9Dz8r2b3B-38" value="&lt;font face=&quot;Times New Roman&quot;&gt;NO&lt;/font&gt;" style="text;html=1;align=center;verticalAlign=middle;resizable=0;points=[];autosize=1;strokeColor=none;fillColor=none;fontFamily=Architects Daughter;fontSource=https%3A%2F%2Ffonts.googleapis.com%2Fcss%3Ffamily%3DArchitects%2BDaughter;swimlaneLine=0;fontStyle=0" vertex="1" parent="5jS3hL7-IDB9Dz8r2b3B-70">
          <mxGeometry x="413.7637028014616" y="308" width="40" height="30" as="geometry" />
        </mxCell>
        <mxCell id="5jS3hL7-IDB9Dz8r2b3B-43" style="edgeStyle=orthogonalEdgeStyle;rounded=0;hachureGap=4;orthogonalLoop=1;jettySize=auto;html=1;exitX=0.5;exitY=1;exitDx=0;exitDy=0;entryX=0.5;entryY=0;entryDx=0;entryDy=0;fontFamily=Architects Daughter;fontSource=https%3A%2F%2Ffonts.googleapis.com%2Fcss%3Ffamily%3DArchitects%2BDaughter;swimlaneLine=0;fontStyle=0" edge="1" parent="5jS3hL7-IDB9Dz8r2b3B-70">
          <mxGeometry relative="1" as="geometry">
            <mxPoint x="644.7015834348356" y="230" as="sourcePoint" />
            <mxPoint x="644.2204628501829" y="269.9999999999999" as="targetPoint" />
          </mxGeometry>
        </mxCell>
        <mxCell id="5jS3hL7-IDB9Dz8r2b3B-49" style="edgeStyle=orthogonalEdgeStyle;rounded=0;orthogonalLoop=1;jettySize=auto;html=1;exitX=0.5;exitY=1;exitDx=0;exitDy=0;fontStyle=0" edge="1" parent="5jS3hL7-IDB9Dz8r2b3B-70" source="5jS3hL7-IDB9Dz8r2b3B-47" target="11">
          <mxGeometry relative="1" as="geometry" />
        </mxCell>
        <mxCell id="5jS3hL7-IDB9Dz8r2b3B-51" style="edgeStyle=orthogonalEdgeStyle;rounded=0;orthogonalLoop=1;jettySize=auto;html=1;exitX=1;exitY=0.5;exitDx=0;exitDy=0;entryX=1;entryY=0.25;entryDx=0;entryDy=0;fontStyle=0" edge="1" parent="5jS3hL7-IDB9Dz8r2b3B-70" source="5jS3hL7-IDB9Dz8r2b3B-47" target="uONx_OTgXNivy8K3GdRn-29">
          <mxGeometry relative="1" as="geometry" />
        </mxCell>
        <mxCell id="5jS3hL7-IDB9Dz8r2b3B-47" value="&lt;div&gt;&lt;font face=&quot;Times New Roman&quot;&gt;&lt;br&gt;&lt;/font&gt;&lt;/div&gt;&lt;font face=&quot;Times New Roman&quot;&gt;REQUIREMENT&lt;br&gt;MET&lt;/font&gt;" style="rhombus;whiteSpace=wrap;html=1;hachureGap=4;fontFamily=Architects Daughter;fontSource=https%3A%2F%2Ffonts.googleapis.com%2Fcss%3Ffamily%3DArchitects%2BDaughter;swimlaneLine=0;fontStyle=0" vertex="1" parent="5jS3hL7-IDB9Dz8r2b3B-70">
          <mxGeometry x="317.53958587088914" y="470" width="126.05359317904993" height="77" as="geometry" />
        </mxCell>
        <mxCell id="5jS3hL7-IDB9Dz8r2b3B-48" style="edgeStyle=orthogonalEdgeStyle;rounded=0;orthogonalLoop=1;jettySize=auto;html=1;exitX=0.5;exitY=1;exitDx=0;exitDy=0;entryX=0.5;entryY=0;entryDx=0;entryDy=0;fontStyle=0" edge="1" parent="5jS3hL7-IDB9Dz8r2b3B-70" source="10" target="5jS3hL7-IDB9Dz8r2b3B-47">
          <mxGeometry relative="1" as="geometry" />
        </mxCell>
        <mxCell id="5jS3hL7-IDB9Dz8r2b3B-50" value="&lt;font face=&quot;Times New Roman&quot;&gt;YES&lt;/font&gt;" style="text;html=1;align=center;verticalAlign=middle;resizable=0;points=[];autosize=1;strokeColor=none;fillColor=none;fontFamily=Architects Daughter;fontSource=https%3A%2F%2Ffonts.googleapis.com%2Fcss%3Ffamily%3DArchitects%2BDaughter;swimlaneLine=0;fontStyle=0" vertex="1" parent="5jS3hL7-IDB9Dz8r2b3B-70">
          <mxGeometry x="380.08526187576126" y="558" width="50" height="30" as="geometry" />
        </mxCell>
        <mxCell id="5jS3hL7-IDB9Dz8r2b3B-52" value="&lt;font face=&quot;Times New Roman&quot;&gt;NO&lt;/font&gt;" style="text;html=1;align=center;verticalAlign=middle;resizable=0;points=[];autosize=1;strokeColor=none;fillColor=none;fontFamily=Architects Daughter;fontSource=https%3A%2F%2Ffonts.googleapis.com%2Fcss%3Ffamily%3DArchitects%2BDaughter;swimlaneLine=0;fontStyle=0" vertex="1" parent="5jS3hL7-IDB9Dz8r2b3B-70">
          <mxGeometry x="433.0085261875761" y="508" width="40" height="30" as="geometry" />
        </mxCell>
        <mxCell id="5jS3hL7-IDB9Dz8r2b3B-55" style="edgeStyle=orthogonalEdgeStyle;rounded=0;orthogonalLoop=1;jettySize=auto;html=1;exitX=0.5;exitY=1;exitDx=0;exitDy=0;entryX=0.5;entryY=0;entryDx=0;entryDy=0;fontStyle=0" edge="1" parent="5jS3hL7-IDB9Dz8r2b3B-70" source="5jS3hL7-IDB9Dz8r2b3B-54" target="14">
          <mxGeometry relative="1" as="geometry" />
        </mxCell>
        <mxCell id="5jS3hL7-IDB9Dz8r2b3B-58" style="edgeStyle=orthogonalEdgeStyle;rounded=0;orthogonalLoop=1;jettySize=auto;html=1;exitX=1;exitY=0.5;exitDx=0;exitDy=0;entryX=1;entryY=0.5;entryDx=0;entryDy=0;fontStyle=0" edge="1" parent="5jS3hL7-IDB9Dz8r2b3B-70" source="5jS3hL7-IDB9Dz8r2b3B-54" target="12">
          <mxGeometry relative="1" as="geometry" />
        </mxCell>
        <mxCell id="5jS3hL7-IDB9Dz8r2b3B-54" value="&lt;div&gt;&lt;font face=&quot;Times New Roman&quot;&gt;&lt;br&gt;&lt;/font&gt;&lt;/div&gt;&lt;font face=&quot;Times New Roman&quot;&gt;SUITABLE CANDIDATE FOUND&lt;/font&gt;" style="rhombus;whiteSpace=wrap;html=1;hachureGap=4;fontFamily=Architects Daughter;fontSource=https%3A%2F%2Ffonts.googleapis.com%2Fcss%3Ffamily%3DArchitects%2BDaughter;swimlaneLine=0;fontStyle=0" vertex="1" parent="5jS3hL7-IDB9Dz8r2b3B-70">
          <mxGeometry x="567.7222898903775" y="350" width="145.29841656516442" height="106" as="geometry" />
        </mxCell>
        <mxCell id="5jS3hL7-IDB9Dz8r2b3B-56" style="edgeStyle=orthogonalEdgeStyle;rounded=0;orthogonalLoop=1;jettySize=auto;html=1;exitX=0.5;exitY=1;exitDx=0;exitDy=0;entryX=0;entryY=0.5;entryDx=0;entryDy=0;fontStyle=0" edge="1" parent="5jS3hL7-IDB9Dz8r2b3B-70" source="7" target="5jS3hL7-IDB9Dz8r2b3B-31">
          <mxGeometry relative="1" as="geometry">
            <Array as="points">
              <mxPoint x="134.71376370280146" y="1110" />
              <mxPoint x="558.0998781973203" y="1110" />
              <mxPoint x="558.0998781973203" y="110" />
            </Array>
          </mxGeometry>
        </mxCell>
        <mxCell id="5jS3hL7-IDB9Dz8r2b3B-57" value="&lt;font face=&quot;Times New Roman&quot;&gt;YES&lt;/font&gt;" style="text;html=1;align=center;verticalAlign=middle;resizable=0;points=[];autosize=1;strokeColor=none;fillColor=none;fontFamily=Architects Daughter;fontSource=https%3A%2F%2Ffonts.googleapis.com%2Fcss%3Ffamily%3DArchitects%2BDaughter;swimlaneLine=0;fontStyle=0" vertex="1" parent="5jS3hL7-IDB9Dz8r2b3B-70">
          <mxGeometry x="591.7783191230207" y="448" width="50" height="30" as="geometry" />
        </mxCell>
        <mxCell id="5jS3hL7-IDB9Dz8r2b3B-59" value="&lt;font face=&quot;Times New Roman&quot;&gt;NO&lt;/font&gt;" style="text;html=1;align=center;verticalAlign=middle;resizable=0;points=[];autosize=1;strokeColor=none;fillColor=none;fontFamily=Architects Daughter;fontSource=https%3A%2F%2Ffonts.googleapis.com%2Fcss%3Ffamily%3DArchitects%2BDaughter;swimlaneLine=0;fontStyle=0" vertex="1" parent="5jS3hL7-IDB9Dz8r2b3B-70">
          <mxGeometry x="712.0584652862362" y="408" width="40" height="30" as="geometry" />
        </mxCell>
        <mxCell id="5jS3hL7-IDB9Dz8r2b3B-62" style="edgeStyle=orthogonalEdgeStyle;rounded=0;orthogonalLoop=1;jettySize=auto;html=1;exitX=0.5;exitY=1;exitDx=0;exitDy=0;entryX=0.5;entryY=0;entryDx=0;entryDy=0;fontStyle=0" edge="1" parent="5jS3hL7-IDB9Dz8r2b3B-70" source="uONx_OTgXNivy8K3GdRn-32" target="uONx_OTgXNivy8K3GdRn-34">
          <mxGeometry relative="1" as="geometry" />
        </mxCell>
        <mxCell id="5jS3hL7-IDB9Dz8r2b3B-65" style="edgeStyle=orthogonalEdgeStyle;rounded=0;orthogonalLoop=1;jettySize=auto;html=1;exitX=0.5;exitY=1;exitDx=0;exitDy=0;fontStyle=0" edge="1" parent="5jS3hL7-IDB9Dz8r2b3B-70" source="13" target="5jS3hL7-IDB9Dz8r2b3B-54">
          <mxGeometry relative="1" as="geometry" />
        </mxCell>
      </root>
    </mxGraphModel>
  </diagram>
</mxfile>
